<mxfile host="app.diagrams.net" modified="2024-07-11T20:34:35.484Z" agent="Mozilla/5.0 (Windows NT 10.0; Win64; x64) AppleWebKit/537.36 (KHTML, like Gecko) Chrome/126.0.0.0 Safari/537.36" etag="0ZjUJudwtAzzUBHA3sxp" version="24.6.5" type="github">
  <diagram name="Page-1" id="NDDJf6NNWKpsKH6rvCn7">
    <mxGraphModel dx="2924" dy="2232" grid="1" gridSize="10" guides="1" tooltips="1" connect="1" arrows="1" fold="1" page="1" pageScale="1" pageWidth="850" pageHeight="1100" math="0" shadow="0">
      <root>
        <mxCell id="0" />
        <mxCell id="1" parent="0" />
        <mxCell id="YvG4XxYLnUQG-n4VTwEE-14" value="Employé" style="shape=umlActor;verticalLabelPosition=bottom;verticalAlign=top;html=1;outlineConnect=0;" parent="1" vertex="1">
          <mxGeometry x="-250" y="175" width="30" height="60" as="geometry" />
        </mxCell>
        <mxCell id="YvG4XxYLnUQG-n4VTwEE-28" value="Admin&lt;div&gt;&lt;br&gt;&lt;/div&gt;" style="shape=umlActor;verticalLabelPosition=bottom;verticalAlign=top;html=1;outlineConnect=0;" parent="1" vertex="1">
          <mxGeometry x="-650" y="700" width="30" height="60" as="geometry" />
        </mxCell>
        <mxCell id="N-_iPHO6JpGD-k_wfbWc-49" style="edgeStyle=orthogonalEdgeStyle;rounded=0;orthogonalLoop=1;jettySize=auto;html=1;entryX=0;entryY=0.5;entryDx=0;entryDy=0;endArrow=none;endFill=0;dashed=1;dashPattern=8 8;" edge="1" parent="1" target="N-_iPHO6JpGD-k_wfbWc-24">
          <mxGeometry relative="1" as="geometry">
            <mxPoint x="-390" y="490" as="sourcePoint" />
            <Array as="points">
              <mxPoint x="-390" y="640" />
              <mxPoint x="-280" y="640" />
            </Array>
          </mxGeometry>
        </mxCell>
        <mxCell id="N-_iPHO6JpGD-k_wfbWc-50" style="edgeStyle=orthogonalEdgeStyle;rounded=0;orthogonalLoop=1;jettySize=auto;html=1;entryX=1;entryY=0.5;entryDx=0;entryDy=0;dashed=1;dashPattern=8 8;endArrow=none;endFill=0;" edge="1" parent="1" target="N-_iPHO6JpGD-k_wfbWc-44">
          <mxGeometry relative="1" as="geometry">
            <mxPoint x="-390" y="490" as="sourcePoint" />
            <Array as="points">
              <mxPoint x="-390" y="960" />
            </Array>
          </mxGeometry>
        </mxCell>
        <mxCell id="N-_iPHO6JpGD-k_wfbWc-13" style="edgeStyle=orthogonalEdgeStyle;rounded=0;orthogonalLoop=1;jettySize=auto;html=1;entryX=0.5;entryY=1;entryDx=0;entryDy=0;endArrow=none;endFill=0;dashed=1;dashPattern=8 8;" edge="1" parent="1" target="N-_iPHO6JpGD-k_wfbWc-7">
          <mxGeometry relative="1" as="geometry">
            <mxPoint x="-330" y="360" as="sourcePoint" />
          </mxGeometry>
        </mxCell>
        <mxCell id="N-_iPHO6JpGD-k_wfbWc-25" style="edgeStyle=orthogonalEdgeStyle;rounded=0;orthogonalLoop=1;jettySize=auto;html=1;entryX=0.5;entryY=1;entryDx=0;entryDy=0;endArrow=none;endFill=0;dashed=1;dashPattern=8 8;" edge="1" parent="1" target="N-_iPHO6JpGD-k_wfbWc-5">
          <mxGeometry relative="1" as="geometry">
            <mxPoint x="-330" y="360" as="sourcePoint" />
            <Array as="points">
              <mxPoint x="-220" y="360" />
              <mxPoint x="-220" y="190" />
              <mxPoint x="-30" y="190" />
            </Array>
          </mxGeometry>
        </mxCell>
        <mxCell id="N-_iPHO6JpGD-k_wfbWc-29" style="edgeStyle=orthogonalEdgeStyle;rounded=0;orthogonalLoop=1;jettySize=auto;html=1;entryX=0.5;entryY=0;entryDx=0;entryDy=0;dashed=1;dashPattern=8 8;" edge="1" parent="1" source="N-_iPHO6JpGD-k_wfbWc-2" target="N-_iPHO6JpGD-k_wfbWc-5">
          <mxGeometry relative="1" as="geometry">
            <Array as="points">
              <mxPoint x="180" y="20" />
              <mxPoint x="-30" y="20" />
            </Array>
          </mxGeometry>
        </mxCell>
        <mxCell id="N-_iPHO6JpGD-k_wfbWc-104" style="edgeStyle=orthogonalEdgeStyle;rounded=0;orthogonalLoop=1;jettySize=auto;html=1;entryX=1;entryY=0.5;entryDx=0;entryDy=0;dashed=1;dashPattern=8 8;" edge="1" parent="1" source="N-_iPHO6JpGD-k_wfbWc-2" target="N-_iPHO6JpGD-k_wfbWc-24">
          <mxGeometry relative="1" as="geometry">
            <Array as="points">
              <mxPoint x="390" y="20" />
              <mxPoint x="390" y="640" />
            </Array>
          </mxGeometry>
        </mxCell>
        <mxCell id="N-_iPHO6JpGD-k_wfbWc-2" value="Afficher le rapport d&#39;un projet" style="ellipse;whiteSpace=wrap;html=1;" vertex="1" parent="1">
          <mxGeometry x="140" y="-20" width="120" height="80" as="geometry" />
        </mxCell>
        <mxCell id="N-_iPHO6JpGD-k_wfbWc-66" style="edgeStyle=orthogonalEdgeStyle;rounded=0;orthogonalLoop=1;jettySize=auto;html=1;entryX=1;entryY=0.5;entryDx=0;entryDy=0;dashed=1;dashPattern=8 8;" edge="1" parent="1" source="N-_iPHO6JpGD-k_wfbWc-3" target="N-_iPHO6JpGD-k_wfbWc-4">
          <mxGeometry relative="1" as="geometry" />
        </mxCell>
        <mxCell id="N-_iPHO6JpGD-k_wfbWc-3" value="Consulter les informations salariales d&#39;un employé" style="ellipse;whiteSpace=wrap;html=1;" vertex="1" parent="1">
          <mxGeometry x="120" y="235" width="120" height="80" as="geometry" />
        </mxCell>
        <mxCell id="N-_iPHO6JpGD-k_wfbWc-62" style="edgeStyle=orthogonalEdgeStyle;rounded=0;orthogonalLoop=1;jettySize=auto;html=1;entryX=1;entryY=0.5;entryDx=0;entryDy=0;dashed=1;dashPattern=8 8;" edge="1" parent="1" source="N-_iPHO6JpGD-k_wfbWc-4">
          <mxGeometry relative="1" as="geometry">
            <mxPoint x="-330" y="360" as="targetPoint" />
            <Array as="points">
              <mxPoint x="-220" y="275" />
              <mxPoint x="-220" y="360" />
            </Array>
          </mxGeometry>
        </mxCell>
        <mxCell id="N-_iPHO6JpGD-k_wfbWc-4" value="&#xa;&lt;span style=&quot;color: rgb(0, 0, 0); font-family: Helvetica; font-size: 12px; font-style: normal; font-variant-ligatures: normal; font-variant-caps: normal; font-weight: 400; letter-spacing: normal; orphans: 2; text-align: center; text-indent: 0px; text-transform: none; widows: 2; word-spacing: 0px; -webkit-text-stroke-width: 0px; white-space: normal; background-color: rgb(251, 251, 251); text-decoration-thickness: initial; text-decoration-style: initial; text-decoration-color: initial; display: inline !important; float: none;&quot;&gt;Consulter les informations d&#39;un employé&lt;/span&gt;&#xa;&#xa;" style="ellipse;whiteSpace=wrap;html=1;" vertex="1" parent="1">
          <mxGeometry x="-70" y="235" width="120" height="80" as="geometry" />
        </mxCell>
        <mxCell id="N-_iPHO6JpGD-k_wfbWc-5" value="S&#39;enregistrer a un projet (punch in)" style="ellipse;whiteSpace=wrap;html=1;" vertex="1" parent="1">
          <mxGeometry x="-90" y="40" width="120" height="80" as="geometry" />
        </mxCell>
        <mxCell id="N-_iPHO6JpGD-k_wfbWc-11" style="edgeStyle=orthogonalEdgeStyle;rounded=0;orthogonalLoop=1;jettySize=auto;html=1;entryX=0;entryY=0.5;entryDx=0;entryDy=0;dashed=1;dashPattern=8 8;" edge="1" parent="1" source="N-_iPHO6JpGD-k_wfbWc-7" target="N-_iPHO6JpGD-k_wfbWc-5">
          <mxGeometry relative="1" as="geometry" />
        </mxCell>
        <mxCell id="N-_iPHO6JpGD-k_wfbWc-7" value="Se retirer d&#39;un projet (punch out)" style="ellipse;whiteSpace=wrap;html=1;" vertex="1" parent="1">
          <mxGeometry x="-280" y="40" width="120" height="80" as="geometry" />
        </mxCell>
        <mxCell id="N-_iPHO6JpGD-k_wfbWc-12" value="&amp;lt;&amp;lt;include&amp;gt;&amp;gt;" style="text;html=1;align=center;verticalAlign=middle;whiteSpace=wrap;rounded=0;" vertex="1" parent="1">
          <mxGeometry x="-160" y="50" width="60" height="30" as="geometry" />
        </mxCell>
        <mxCell id="N-_iPHO6JpGD-k_wfbWc-20" value="&amp;lt;&amp;lt;extend&amp;gt;&amp;gt;" style="text;html=1;align=center;verticalAlign=middle;whiteSpace=wrap;rounded=0;" vertex="1" parent="1">
          <mxGeometry x="60" y="250" width="60" height="30" as="geometry" />
        </mxCell>
        <mxCell id="N-_iPHO6JpGD-k_wfbWc-24" value="Afficher tous les projets" style="ellipse;whiteSpace=wrap;html=1;" vertex="1" parent="1">
          <mxGeometry x="-280" y="600" width="120" height="80" as="geometry" />
        </mxCell>
        <mxCell id="N-_iPHO6JpGD-k_wfbWc-33" value="&amp;lt;&amp;lt;include&amp;gt;&amp;gt;" style="text;html=1;align=center;verticalAlign=middle;whiteSpace=wrap;rounded=0;" vertex="1" parent="1">
          <mxGeometry x="50" y="-10" width="60" height="30" as="geometry" />
        </mxCell>
        <mxCell id="N-_iPHO6JpGD-k_wfbWc-77" style="edgeStyle=orthogonalEdgeStyle;rounded=0;orthogonalLoop=1;jettySize=auto;html=1;entryX=0.5;entryY=0;entryDx=0;entryDy=0;dashed=1;dashPattern=8 8;" edge="1" parent="1" source="N-_iPHO6JpGD-k_wfbWc-34" target="N-_iPHO6JpGD-k_wfbWc-43">
          <mxGeometry relative="1" as="geometry" />
        </mxCell>
        <mxCell id="N-_iPHO6JpGD-k_wfbWc-34" value="modifier les caractéristiques d&#39;un employé" style="ellipse;whiteSpace=wrap;html=1;" vertex="1" parent="1">
          <mxGeometry x="120" y="330" width="120" height="80" as="geometry" />
        </mxCell>
        <mxCell id="N-_iPHO6JpGD-k_wfbWc-81" style="edgeStyle=orthogonalEdgeStyle;rounded=0;orthogonalLoop=1;jettySize=auto;html=1;entryX=0.5;entryY=1;entryDx=0;entryDy=0;dashed=1;dashPattern=8 8;" edge="1" parent="1" source="N-_iPHO6JpGD-k_wfbWc-35" target="N-_iPHO6JpGD-k_wfbWc-24">
          <mxGeometry relative="1" as="geometry">
            <Array as="points">
              <mxPoint x="-90" y="700" />
              <mxPoint x="-220" y="700" />
            </Array>
          </mxGeometry>
        </mxCell>
        <mxCell id="N-_iPHO6JpGD-k_wfbWc-35" value="Modifier les caractéritique d&#39;un projet" style="ellipse;whiteSpace=wrap;html=1;" vertex="1" parent="1">
          <mxGeometry x="-150" y="740" width="120" height="80" as="geometry" />
        </mxCell>
        <mxCell id="N-_iPHO6JpGD-k_wfbWc-105" style="edgeStyle=orthogonalEdgeStyle;rounded=0;orthogonalLoop=1;jettySize=auto;html=1;entryX=0.5;entryY=1;entryDx=0;entryDy=0;dashed=1;dashPattern=8 8;" edge="1" parent="1" source="N-_iPHO6JpGD-k_wfbWc-36" target="N-_iPHO6JpGD-k_wfbWc-24">
          <mxGeometry relative="1" as="geometry" />
        </mxCell>
        <mxCell id="N-_iPHO6JpGD-k_wfbWc-36" value="Ajouter/retirer un projet" style="ellipse;whiteSpace=wrap;html=1;" vertex="1" parent="1">
          <mxGeometry x="-280" y="740" width="120" height="80" as="geometry" />
        </mxCell>
        <mxCell id="N-_iPHO6JpGD-k_wfbWc-88" style="edgeStyle=orthogonalEdgeStyle;rounded=0;orthogonalLoop=1;jettySize=auto;html=1;entryX=1;entryY=0.5;entryDx=0;entryDy=0;dashed=1;dashPattern=8 8;" edge="1" parent="1" source="N-_iPHO6JpGD-k_wfbWc-39" target="N-_iPHO6JpGD-k_wfbWc-87">
          <mxGeometry relative="1" as="geometry" />
        </mxCell>
        <mxCell id="N-_iPHO6JpGD-k_wfbWc-39" value="Assigner un employé a un projet" style="ellipse;whiteSpace=wrap;html=1;" vertex="1" parent="1">
          <mxGeometry x="-70" y="510" width="120" height="80" as="geometry" />
        </mxCell>
        <mxCell id="N-_iPHO6JpGD-k_wfbWc-52" style="edgeStyle=orthogonalEdgeStyle;rounded=0;orthogonalLoop=1;jettySize=auto;html=1;entryX=1;entryY=0.5;entryDx=0;entryDy=0;dashed=1;dashPattern=8 8;" edge="1" parent="1">
          <mxGeometry relative="1" as="geometry">
            <mxPoint x="60" y="779.5" as="sourcePoint" />
            <mxPoint x="-30" y="779.5" as="targetPoint" />
          </mxGeometry>
        </mxCell>
        <mxCell id="N-_iPHO6JpGD-k_wfbWc-41" value="Definir les disciplines" style="ellipse;whiteSpace=wrap;html=1;" vertex="1" parent="1">
          <mxGeometry x="60" y="740" width="120" height="80" as="geometry" />
        </mxCell>
        <mxCell id="N-_iPHO6JpGD-k_wfbWc-75" style="edgeStyle=orthogonalEdgeStyle;rounded=0;orthogonalLoop=1;jettySize=auto;html=1;entryX=1;entryY=0.5;entryDx=0;entryDy=0;dashed=1;dashPattern=8 8;" edge="1" parent="1" source="N-_iPHO6JpGD-k_wfbWc-42" target="N-_iPHO6JpGD-k_wfbWc-43">
          <mxGeometry relative="1" as="geometry" />
        </mxCell>
        <mxCell id="N-_iPHO6JpGD-k_wfbWc-42" value="Ajouter/retirer un employé" style="ellipse;whiteSpace=wrap;html=1;" vertex="1" parent="1">
          <mxGeometry x="120" y="420" width="120" height="80" as="geometry" />
        </mxCell>
        <mxCell id="N-_iPHO6JpGD-k_wfbWc-74" style="edgeStyle=orthogonalEdgeStyle;rounded=0;orthogonalLoop=1;jettySize=auto;html=1;entryX=1;entryY=0.5;entryDx=0;entryDy=0;dashed=1;dashPattern=8 8;" edge="1" parent="1">
          <mxGeometry relative="1" as="geometry">
            <mxPoint x="-70" y="449.5" as="sourcePoint" />
            <mxPoint x="-330" y="449.5" as="targetPoint" />
            <Array as="points">
              <mxPoint x="-200" y="449.5" />
              <mxPoint x="-200" y="450.5" />
            </Array>
          </mxGeometry>
        </mxCell>
        <mxCell id="N-_iPHO6JpGD-k_wfbWc-43" value="Afficher tous les employées" style="ellipse;whiteSpace=wrap;html=1;" vertex="1" parent="1">
          <mxGeometry x="-70" y="420" width="120" height="80" as="geometry" />
        </mxCell>
        <mxCell id="N-_iPHO6JpGD-k_wfbWc-44" value="Afficher le rapport d&#39;état Global des projets" style="ellipse;whiteSpace=wrap;html=1;" vertex="1" parent="1">
          <mxGeometry x="-545" y="920" width="120" height="80" as="geometry" />
        </mxCell>
        <mxCell id="N-_iPHO6JpGD-k_wfbWc-73" style="edgeStyle=orthogonalEdgeStyle;rounded=0;orthogonalLoop=1;jettySize=auto;html=1;entryX=0.5;entryY=1;entryDx=0;entryDy=0;dashed=1;dashPattern=8 8;" edge="1" parent="1" source="N-_iPHO6JpGD-k_wfbWc-48">
          <mxGeometry relative="1" as="geometry">
            <mxPoint x="-390" y="490" as="targetPoint" />
            <Array as="points">
              <mxPoint x="-390" y="960" />
            </Array>
          </mxGeometry>
        </mxCell>
        <mxCell id="N-_iPHO6JpGD-k_wfbWc-48" value="Afficher le rapport des salaires totaux des emplyées" style="ellipse;whiteSpace=wrap;html=1;" vertex="1" parent="1">
          <mxGeometry x="-340" y="920" width="120" height="80" as="geometry" />
        </mxCell>
        <mxCell id="N-_iPHO6JpGD-k_wfbWc-64" value="Connecter avec Nom d&#39;usager et ID" style="ellipse;whiteSpace=wrap;html=1;" vertex="1" parent="1">
          <mxGeometry x="-450" y="320" width="120" height="80" as="geometry" />
        </mxCell>
        <mxCell id="N-_iPHO6JpGD-k_wfbWc-65" value="&amp;lt;&amp;lt;include&amp;gt;&amp;gt;" style="text;html=1;align=center;verticalAlign=middle;whiteSpace=wrap;rounded=0;" vertex="1" parent="1">
          <mxGeometry x="-300" y="320" width="60" height="30" as="geometry" />
        </mxCell>
        <mxCell id="N-_iPHO6JpGD-k_wfbWc-67" value="" style="endArrow=none;html=1;rounded=0;entryX=0.5;entryY=0.5;entryDx=0;entryDy=0;entryPerimeter=0;exitX=0;exitY=1;exitDx=0;exitDy=0;" edge="1" parent="1" source="N-_iPHO6JpGD-k_wfbWc-7" target="YvG4XxYLnUQG-n4VTwEE-14">
          <mxGeometry width="50" height="50" relative="1" as="geometry">
            <mxPoint x="-180" y="110" as="sourcePoint" />
            <mxPoint x="-240" y="450" as="targetPoint" />
          </mxGeometry>
        </mxCell>
        <mxCell id="N-_iPHO6JpGD-k_wfbWc-68" value="" style="endArrow=none;html=1;rounded=0;exitX=0;exitY=1;exitDx=0;exitDy=0;entryX=0.5;entryY=0.5;entryDx=0;entryDy=0;entryPerimeter=0;" edge="1" parent="1" source="N-_iPHO6JpGD-k_wfbWc-5" target="YvG4XxYLnUQG-n4VTwEE-14">
          <mxGeometry width="50" height="50" relative="1" as="geometry">
            <mxPoint x="-272" y="101" as="sourcePoint" />
            <mxPoint x="-470" y="161" as="targetPoint" />
          </mxGeometry>
        </mxCell>
        <mxCell id="N-_iPHO6JpGD-k_wfbWc-69" value="" style="endArrow=none;html=1;rounded=0;exitX=0.5;exitY=0;exitDx=0;exitDy=0;entryX=0.5;entryY=0.5;entryDx=0;entryDy=0;entryPerimeter=0;" edge="1" parent="1" source="N-_iPHO6JpGD-k_wfbWc-4" target="YvG4XxYLnUQG-n4VTwEE-14">
          <mxGeometry width="50" height="50" relative="1" as="geometry">
            <mxPoint x="-62" y="118" as="sourcePoint" />
            <mxPoint x="-430" y="215" as="targetPoint" />
          </mxGeometry>
        </mxCell>
        <mxCell id="N-_iPHO6JpGD-k_wfbWc-70" value="" style="endArrow=none;html=1;rounded=0;entryX=0.5;entryY=0.5;entryDx=0;entryDy=0;entryPerimeter=0;exitX=0.5;exitY=1;exitDx=0;exitDy=0;" edge="1" parent="1" source="N-_iPHO6JpGD-k_wfbWc-2" target="YvG4XxYLnUQG-n4VTwEE-14">
          <mxGeometry width="50" height="50" relative="1" as="geometry">
            <mxPoint x="-290" y="500" as="sourcePoint" />
            <mxPoint x="-240" y="450" as="targetPoint" />
          </mxGeometry>
        </mxCell>
        <mxCell id="N-_iPHO6JpGD-k_wfbWc-71" value="" style="endArrow=none;html=1;rounded=0;entryX=0.5;entryY=0.5;entryDx=0;entryDy=0;entryPerimeter=0;exitX=0.5;exitY=0;exitDx=0;exitDy=0;" edge="1" parent="1" source="N-_iPHO6JpGD-k_wfbWc-3" target="YvG4XxYLnUQG-n4VTwEE-14">
          <mxGeometry width="50" height="50" relative="1" as="geometry">
            <mxPoint x="-280" y="510" as="sourcePoint" />
            <mxPoint x="-230" y="460" as="targetPoint" />
          </mxGeometry>
        </mxCell>
        <mxCell id="N-_iPHO6JpGD-k_wfbWc-72" value="" style="endArrow=none;html=1;rounded=0;entryX=0.744;entryY=0.058;entryDx=0;entryDy=0;entryPerimeter=0;exitX=0.5;exitY=0.5;exitDx=0;exitDy=0;exitPerimeter=0;" edge="1" parent="1" source="YvG4XxYLnUQG-n4VTwEE-14" target="N-_iPHO6JpGD-k_wfbWc-64">
          <mxGeometry width="50" height="50" relative="1" as="geometry">
            <mxPoint x="350" y="200" as="sourcePoint" />
            <mxPoint x="-420" y="225" as="targetPoint" />
          </mxGeometry>
        </mxCell>
        <mxCell id="N-_iPHO6JpGD-k_wfbWc-76" value="&amp;lt;&amp;lt;extend&amp;gt;&amp;gt;" style="text;html=1;align=center;verticalAlign=middle;whiteSpace=wrap;rounded=0;" vertex="1" parent="1">
          <mxGeometry x="60" y="430" width="60" height="30" as="geometry" />
        </mxCell>
        <mxCell id="N-_iPHO6JpGD-k_wfbWc-78" value="&amp;lt;&amp;lt;extend&amp;gt;&amp;gt;" style="text;html=1;align=center;verticalAlign=middle;whiteSpace=wrap;rounded=0;" vertex="1" parent="1">
          <mxGeometry x="30" y="340" width="60" height="30" as="geometry" />
        </mxCell>
        <mxCell id="N-_iPHO6JpGD-k_wfbWc-83" value="&amp;lt;&amp;lt;extend&amp;gt;&amp;gt;" style="text;html=1;align=center;verticalAlign=middle;whiteSpace=wrap;rounded=0;" vertex="1" parent="1">
          <mxGeometry x="-150" y="610" width="60" height="30" as="geometry" />
        </mxCell>
        <mxCell id="N-_iPHO6JpGD-k_wfbWc-84" value="&amp;lt;&amp;lt;extend&amp;gt;&amp;gt;" style="text;html=1;align=center;verticalAlign=middle;whiteSpace=wrap;rounded=0;" vertex="1" parent="1">
          <mxGeometry x="-10" y="750" width="60" height="30" as="geometry" />
        </mxCell>
        <mxCell id="N-_iPHO6JpGD-k_wfbWc-87" value="Connecter avec nom d&#39;usager et mot de passe" style="ellipse;whiteSpace=wrap;html=1;" vertex="1" parent="1">
          <mxGeometry x="-450" y="410" width="120" height="80" as="geometry" />
        </mxCell>
        <mxCell id="N-_iPHO6JpGD-k_wfbWc-89" value="&amp;lt;&amp;lt;include&amp;gt;&amp;gt;" style="text;html=1;align=center;verticalAlign=middle;whiteSpace=wrap;rounded=0;" vertex="1" parent="1">
          <mxGeometry x="-290" y="420" width="60" height="30" as="geometry" />
        </mxCell>
        <mxCell id="N-_iPHO6JpGD-k_wfbWc-90" value="&amp;lt;&amp;lt;include&amp;gt;&amp;gt;" style="text;html=1;align=center;verticalAlign=middle;whiteSpace=wrap;rounded=0;" vertex="1" parent="1">
          <mxGeometry x="-450" y="540" width="60" height="30" as="geometry" />
        </mxCell>
        <mxCell id="N-_iPHO6JpGD-k_wfbWc-92" value="" style="endArrow=none;html=1;rounded=0;exitX=0.5;exitY=0.5;exitDx=0;exitDy=0;exitPerimeter=0;entryX=0;entryY=1;entryDx=0;entryDy=0;" edge="1" parent="1" source="YvG4XxYLnUQG-n4VTwEE-28" target="N-_iPHO6JpGD-k_wfbWc-87">
          <mxGeometry width="50" height="50" relative="1" as="geometry">
            <mxPoint x="-280" y="510" as="sourcePoint" />
            <mxPoint x="-230" y="460" as="targetPoint" />
          </mxGeometry>
        </mxCell>
        <mxCell id="N-_iPHO6JpGD-k_wfbWc-93" value="" style="endArrow=none;html=1;rounded=0;exitX=0.5;exitY=0.5;exitDx=0;exitDy=0;exitPerimeter=0;entryX=0;entryY=0.5;entryDx=0;entryDy=0;" edge="1" parent="1" source="YvG4XxYLnUQG-n4VTwEE-28" target="N-_iPHO6JpGD-k_wfbWc-24">
          <mxGeometry width="50" height="50" relative="1" as="geometry">
            <mxPoint x="-625" y="760" as="sourcePoint" />
            <mxPoint x="-422" y="488" as="targetPoint" />
          </mxGeometry>
        </mxCell>
        <mxCell id="N-_iPHO6JpGD-k_wfbWc-94" value="" style="endArrow=none;html=1;rounded=0;exitX=0.5;exitY=0.5;exitDx=0;exitDy=0;exitPerimeter=0;entryX=0;entryY=0.5;entryDx=0;entryDy=0;" edge="1" parent="1" source="YvG4XxYLnUQG-n4VTwEE-28" target="N-_iPHO6JpGD-k_wfbWc-36">
          <mxGeometry width="50" height="50" relative="1" as="geometry">
            <mxPoint x="-615" y="770" as="sourcePoint" />
            <mxPoint x="-412" y="498" as="targetPoint" />
          </mxGeometry>
        </mxCell>
        <mxCell id="N-_iPHO6JpGD-k_wfbWc-95" value="" style="endArrow=none;html=1;rounded=0;exitX=0.5;exitY=0.5;exitDx=0;exitDy=0;exitPerimeter=0;entryX=0.5;entryY=0;entryDx=0;entryDy=0;" edge="1" parent="1" source="YvG4XxYLnUQG-n4VTwEE-28" target="N-_iPHO6JpGD-k_wfbWc-35">
          <mxGeometry width="50" height="50" relative="1" as="geometry">
            <mxPoint x="-605" y="780" as="sourcePoint" />
            <mxPoint x="-402" y="508" as="targetPoint" />
          </mxGeometry>
        </mxCell>
        <mxCell id="N-_iPHO6JpGD-k_wfbWc-96" value="" style="endArrow=none;html=1;rounded=0;exitX=0.5;exitY=0.5;exitDx=0;exitDy=0;exitPerimeter=0;entryX=0.5;entryY=0;entryDx=0;entryDy=0;" edge="1" parent="1" source="YvG4XxYLnUQG-n4VTwEE-28" target="N-_iPHO6JpGD-k_wfbWc-44">
          <mxGeometry width="50" height="50" relative="1" as="geometry">
            <mxPoint x="-595" y="790" as="sourcePoint" />
            <mxPoint x="-392" y="518" as="targetPoint" />
          </mxGeometry>
        </mxCell>
        <mxCell id="N-_iPHO6JpGD-k_wfbWc-97" value="" style="endArrow=none;html=1;rounded=0;exitX=0.5;exitY=0.5;exitDx=0;exitDy=0;exitPerimeter=0;entryX=0;entryY=0;entryDx=0;entryDy=0;" edge="1" parent="1" source="YvG4XxYLnUQG-n4VTwEE-28" target="N-_iPHO6JpGD-k_wfbWc-48">
          <mxGeometry width="50" height="50" relative="1" as="geometry">
            <mxPoint x="-585" y="800" as="sourcePoint" />
            <mxPoint x="-382" y="528" as="targetPoint" />
          </mxGeometry>
        </mxCell>
        <mxCell id="N-_iPHO6JpGD-k_wfbWc-98" value="" style="endArrow=none;html=1;rounded=0;exitX=0.5;exitY=0.5;exitDx=0;exitDy=0;exitPerimeter=0;entryX=0;entryY=0.5;entryDx=0;entryDy=0;" edge="1" parent="1" source="YvG4XxYLnUQG-n4VTwEE-28" target="N-_iPHO6JpGD-k_wfbWc-43">
          <mxGeometry width="50" height="50" relative="1" as="geometry">
            <mxPoint x="-575" y="810" as="sourcePoint" />
            <mxPoint x="-372" y="538" as="targetPoint" />
          </mxGeometry>
        </mxCell>
        <mxCell id="N-_iPHO6JpGD-k_wfbWc-99" value="" style="endArrow=none;html=1;rounded=0;exitX=0.5;exitY=0.5;exitDx=0;exitDy=0;exitPerimeter=0;entryX=0;entryY=0.5;entryDx=0;entryDy=0;" edge="1" parent="1" source="YvG4XxYLnUQG-n4VTwEE-28" target="N-_iPHO6JpGD-k_wfbWc-39">
          <mxGeometry width="50" height="50" relative="1" as="geometry">
            <mxPoint x="-625" y="760" as="sourcePoint" />
            <mxPoint x="-60" y="470" as="targetPoint" />
          </mxGeometry>
        </mxCell>
        <mxCell id="N-_iPHO6JpGD-k_wfbWc-100" value="" style="endArrow=none;html=1;rounded=0;exitX=0;exitY=1;exitDx=0;exitDy=0;" edge="1" parent="1" source="N-_iPHO6JpGD-k_wfbWc-42">
          <mxGeometry width="50" height="50" relative="1" as="geometry">
            <mxPoint x="-625" y="760" as="sourcePoint" />
            <mxPoint x="-250" y="550" as="targetPoint" />
          </mxGeometry>
        </mxCell>
        <mxCell id="N-_iPHO6JpGD-k_wfbWc-102" value="" style="endArrow=none;html=1;rounded=0;entryX=0.5;entryY=0;entryDx=0;entryDy=0;exitX=0.5;exitY=0.5;exitDx=0;exitDy=0;exitPerimeter=0;" edge="1" parent="1" source="YvG4XxYLnUQG-n4VTwEE-28" target="N-_iPHO6JpGD-k_wfbWc-41">
          <mxGeometry width="50" height="50" relative="1" as="geometry">
            <mxPoint x="-630" y="730" as="sourcePoint" />
            <mxPoint x="-230" y="460" as="targetPoint" />
          </mxGeometry>
        </mxCell>
        <mxCell id="N-_iPHO6JpGD-k_wfbWc-103" value="" style="endArrow=none;html=1;rounded=0;exitX=0;exitY=1;exitDx=0;exitDy=0;" edge="1" parent="1" source="N-_iPHO6JpGD-k_wfbWc-34">
          <mxGeometry width="50" height="50" relative="1" as="geometry">
            <mxPoint x="-280" y="430" as="sourcePoint" />
            <mxPoint x="70" y="500" as="targetPoint" />
          </mxGeometry>
        </mxCell>
        <mxCell id="N-_iPHO6JpGD-k_wfbWc-106" value="&amp;lt;&amp;lt;include&amp;gt;&amp;gt;" style="text;html=1;align=center;verticalAlign=middle;whiteSpace=wrap;rounded=0;" vertex="1" parent="1">
          <mxGeometry x="-280" y="680" width="60" height="30" as="geometry" />
        </mxCell>
      </root>
    </mxGraphModel>
  </diagram>
</mxfile>
